# xmcd CD database file
#
# Track frame offsets:
#	150
#	21337
#	43001
#	65546
#	98102
#	126269
#	158531
#	188214
#	226551
#	264499
#
# Disc length: 3631 seconds
#
# Revision: 0
# Processed by: cddbd v1.5.1PL0 Copyright (c) Steve Scherf et al.
# Submitted via: CDex 1.51
#
DISCID=7b0e2d0a
DTITLE=Blueskraft - still aLIVE and blue
DYEAR=2003
DGENRE=Blues
TTITLE0=Come on home
TTITLE1=Restless Hobo
TTITLE2=She's into something
TTITLE3=Might it help you (if I cry)
TTITLE4=Too tired
TTITLE5=Help Me
TTITLE6=Have you ever loved a woman
TTITLE7=Hoochie coochie man
TTITLE8=I wanna rock you
TTITLE9=Outside Help (Bonus)
EXTD=YEAR: 2003
EXTT0=
EXTT1=
EXTT2=
EXTT3=
EXTT4=
EXTT5=
EXTT6=
EXTT7=
EXTT8=
EXTT9=
PLAYORDER=
